<?xml version="1.0" encoding="UTF-8" standalone="no"?>
<svg width="356px" height="76px" viewBox="0 0 356 76" version="1.1" xmlns="http://www.w3.org/2000/svg" xmlns:xlink="http://www.w3.org/1999/xlink">
    <!-- Generator: Sketch 39.1 (31720) - http://www.bohemiancoding.com/sketch -->
    <title>Group 15</title>
    <desc>Created with Sketch.</desc>
    <defs>
        <polygon id="path-1" points="0 0.3496 355.71889 0.3496 355.71889 76 0 76"></polygon>
    </defs>
    <g id="Page-1" stroke="none" stroke-width="1" fill="none" fill-rule="evenodd">
        <g id="Group-15">
            <g id="Group-10">
                <mask id="mask-2" fill="white">
                    <use xlink:href="#path-1"></use>
                </mask>
                <g id="Clip-9"></g>
                <path d="M355.719216,37.5709257 L355.719216,19.1061829 L341.347887,19.1061829 L341.347887,4.73024 L321.627874,4.73024 L321.627874,46.7148114 L321.636557,46.7148114 C321.750521,54.9412686 323.840935,63.1264686 329.223265,68.4019543 C334.576289,73.8663543 342.923838,75.9433257 351.270301,75.9997829 C352.759423,75.9900114 354.24746,75.91184 355.719216,75.7652686 L355.719216,57.2625257 C355.570521,57.2657829 355.421826,57.2744686 355.27313,57.2755543 C351.361472,57.2549257 347.449813,56.4894971 344.941533,54.4754971 C342.381155,52.5027543 341.408667,49.4247543 341.381533,46.34784 L341.347887,46.34784 L341.347887,37.5709257 L355.719216,37.5709257 Z" id="Fill-8" fill="#EF404F" mask="url(#mask-2)"></path>
            </g>
            <path d="M314.969915,44.4608686 C314.969915,35.6188114 312.815463,28.74624 308.507646,23.8431543 C304.199829,18.9389829 297.775549,16.48744 289.234805,16.48744 C280.543195,16.48744 272.846866,19.0453829 267.536171,24.54344 C262.226561,30.0414971 260.26639,37.4764686 260.26639,46.4661829 C260.26639,55.4569829 262.817,63.4999543 268.425085,68.8492686 C274.032085,74.1985829 281.918354,75.9997829 291.573768,75.9997829 C299.669512,75.9997829 307.319171,74.1052114 314.523829,70.3160686 L314.523829,54.4906971 C308.805037,58.27984 302.529451,60.1744114 295.694902,60.1744114 C291.239476,60.1744114 287.712037,59.3199543 285.1115,57.61104 C282.512049,55.9021257 281.063085,53.4505829 280.76678,50.2553257 L314.969915,50.2553257 L314.969915,44.4608686 Z M280.526915,40.5913829 C280.543195,37.5133829 281.140146,34.4364686 282.710671,32.46264 C284.248634,30.4497257 286.648378,29.6842971 289.048122,29.6636686 C291.44678,29.6842971 293.846524,30.4497257 295.385573,32.46264 C296.955012,34.4364686 297.551963,37.5133829 297.568244,40.5913829 L280.526915,40.5913829 Z" id="Fill-13" fill="#EF404F"></path>
            <path d="M261.136202,18.1553143 L239.790312,18.1553143 L225.222532,38.5363429 L225.222532,0.350685714 L206.217776,0.350685714 L206.217776,74.8437143 L225.222532,74.8437143 L225.222532,49.1166286 C225.42441,49.4879429 237.666251,68.8288571 241.509532,74.8437143 L263.565251,74.8437143 L241.206715,42.7684571 L261.136202,18.1553143 Z" id="Fill-11" fill="#EF404F"></path>
            <path d="M189.905704,57.2757714 C186.322911,57.2551429 182.740118,56.4897143 180.442399,54.4757143 C178.098009,52.5029714 177.206923,49.4249714 177.18196,46.3480571 C177.206923,43.2711429 178.098009,40.1942286 180.442399,38.2204 C182.740118,36.2064 186.322911,35.4409714 189.905704,35.4203429 C192.988143,35.4377143 196.06407,36.0131429 198.328143,37.4538857 L198.328143,18.6091429 C194.418655,17.3052 190.096728,16.7254286 185.77046,16.6961143 C177.422911,16.7536571 169.075362,18.8306286 163.723423,24.2939429 C158.260777,29.6486857 156.184472,37.9989143 156.128033,46.3480571 C156.184472,54.6982857 158.260777,63.0485143 163.723423,68.4021714 C169.075362,73.8665714 177.422911,75.9435429 185.769374,76 C190.096728,75.9706857 194.418655,75.392 198.328143,74.0869714 L198.328143,55.2422286 C196.06407,56.6840571 192.988143,57.2584 189.905704,57.2757714" id="Fill-6" fill="#EF404F"></path>
            <path d="M143.304544,24.2939429 C137.95152,18.8295429 129.605056,16.7525714 121.257507,16.6961143 C112.909959,16.7525714 104.563495,18.8306286 99.2104707,24.2939429 C93.7478244,29.6486857 91.6715195,37.9989143 91.6150805,46.3480571 C91.6726049,54.6982857 93.7489098,63.0485143 99.2104707,68.4021714 C104.56241,73.8665714 112.909959,75.9435429 121.257507,76 C129.605056,75.9435429 137.95152,73.8665714 143.304544,68.4021714 C148.76719,63.0474286 150.843495,54.6982857 150.899934,46.3480571 C150.843495,37.9978286 148.76719,29.6476 143.304544,24.2939429 M127.594959,54.4757143 C126.05591,56.4897143 123.657251,57.2551429 121.257507,57.2757714 C118.857763,57.2551429 116.45802,56.4897143 114.920056,54.4757143 C113.349532,52.5029714 112.75258,49.4249714 112.7363,46.3480571 C112.75258,43.2711429 113.349532,40.1942286 114.920056,38.2204 C116.459105,36.2064 118.857763,35.4420571 121.257507,35.4203429 C123.657251,35.4420571 126.05591,36.2064 127.594959,38.2204 C129.165483,40.1942286 129.762434,43.2711429 129.778715,46.3480571 C129.762434,49.4249714 129.165483,52.5018857 127.594959,54.4757143" id="Fill-2" fill="#EF404F"></path>
            <polygon id="Fill-1" fill="#EF404F" points="63.5861585 74.8437143 83.3061707 74.8437143 83.3061707 0.350685714 63.5861585 0.350685714"></polygon>
            <path d="M48.481122,23.1727257 C43.1280976,17.7126686 34.7805488,15.6367829 26.4340854,15.5803257 C24.175439,15.5955257 21.9189634,15.7638114 19.7200122,16.1014686 L19.7200122,0.349925714 L0,0.349925714 L0,74.8429543 L26.4340854,74.8429543 C34.7816341,74.7864971 43.1280976,72.7106114 48.481122,67.2505543 C53.9437683,61.9001543 56.0200732,53.5553543 56.0765122,45.21164 C56.0200732,36.86684 53.9437683,28.5231257 48.481122,23.1727257 M31.8934756,53.3338686 C29.9202805,55.3467829 26.8443537,56.1111257 23.7684268,56.1317543 C22.3835,56.1219829 21.004,55.9515257 19.7200122,55.5954114 L19.7200122,34.8289543 C21.004,34.4717543 22.3835,34.3012971 23.7684268,34.2915257 C26.8443537,34.3121543 29.9202805,35.0775829 31.8934756,37.0894114 C33.9057439,39.0610686 34.6709268,42.1368971 34.6926341,45.21164 C34.6709268,48.2863829 33.9057439,51.3622114 31.8934756,53.3338686" id="Fill-4" fill="#EF404F"></path>
        </g>
    </g>
</svg>